<svg id="Capa_3" data-name="Capa 3" xmlns="http://www.w3.org/2000/svg" viewBox="0 0 300 300"><path d="M113.13,52.07c-.11-.92-.21-1.83-.32-2.75l7.25,2.09c0-5.62-.87-10.89.22-15.78,1.27-5.63-1.92-6.06-6.16-7L113,49.45l-9.58,3c0-7.13-.2-13.45.17-19.75.08-1.25,2.24-2.52,3.64-3.52,1.83-1.3,3.87-2.35,5.81-3.51l8.35,1.45c-2.61-7.06,4.6-16.27-7.28-21.32-.35,7.24-.65,13.61-1,20l-9.74,1.79c0-6.67-.26-13.09.1-19.47.22-3.95,8.82-7.42,12.78-5.22,7.29,4,14.51,8.2,21.5,12.66,1.48.94,2.46,3.35,2.6,5.15.37,4.49.12,9,.12,13.84,1-.47,1.57-.55,1.64-.75,1.15-3.49,1.34-9.34,3.52-10.08,7.34-2.47,14.94-8.69,23.39-1.69,2.61,2.16,6,3.53,9.15,5.35,4.42-5.36-2.86-13.21,5.12-17.45,6.84-3.65,12.63-1.72,18.58,3.33,1.3-5.83-.2-11.49,7.74-12.87s18.85,5.23,18.86,12.93c0,16.46-.09,32.92.12,49.37,0,2.19.94,5.57,2.55,6.32,5.26,2.42,5.78,6.58,4.37,10.45-.71,2-4.74,3.05-7.44,4.19-1.95.84-4.18,1.11-7.54,1.95,4.52,2.46,8.2,4.5,11.91,6.47,6.87,3.65,8.09,10.19,2.81,15.84-2.44,2.62-5.12,5-8.09,7.93,3.41,1.56,6,3.35,8.92,4,7.89,1.69,7.65,7.1,6.91,12.58-.19,1.47-1.85,3.11-3.31,4-2,1.25-4.74,1.52-6.61,2.88-1.67,1.21-3.56,3.36-3.53,5.06s2.09,3.63,3.76,4.88c3.42,2.57,10.16,1,10.12,8,0,7.5.28,7.5-12.89,10.65-1.85,5.19-.23,8.85,4.75,12.09,7.87,5.14,7.66,5.42,5.75,16H228.56c-3,3.73-2.59,6.92,1.05,10.22,1.81,1.63,2.86,4,4.26,6-1.72-1.11-3.91-1.9-5.05-3.39-3.79-4.92-8.62-6.48-14.79-5,5.61,8.74,10.59,10.84,19.76,8.35,5.41,2.49,2.31,6.92,2.25,10.43,0,.75-4.23,1.76-6.6,2.07-2.75.37-5.61.09-10,.09,3,4.89,5.08,9,7.92,12.54,3.34,4.16,3.44,8.51.33,12-1.75,2-5.82,2.35-9,3-2,.44-4.3.09-7,.09.66,2.35,1,4,1.55,5.48,5.36,14.41,1.1,21.93-14.73,26.71-6.48,1.95-12.72,4.57-19.86,7.18-.95,7.87-1.34,8.36-11.76,7.92-11.06-.47-22.78.54-32.91-2.67-6.85-2.17-15-2.13-20.67-6.56-2.53-2-3.06-6.19-4.56-9.53-4.19-1.31-10.89-1.62-14-4.89-2.93-3.11-2.09-9.32-3.1-15.3-2,.52-5.44,1.88-8.93,2.13-6.9.51-14.19,1.71-20.67.2-7-1.6-7.14-8.08-1.8-12.37a8.89,8.89,0,0,0,2.8-6.13c.35-11.24.3-22.49.38-33.74l-.13.12a2.38,2.38,0,0,1,1.27,0c.58,4.32,1.16,8.64,1.85,13.83,3.45-4.41,6.33-8.08,10-12.72l-12-1c.23-4.88.57-9.76.66-14.64.11-6.54-.46-13.12.18-19.6.45-4.52,2.43-8.9,3.72-13.34l3-2.31c7.81,7.84,7.81,7.84,7.81,17.55,0,14.14,0,28.28,0,42.42,0,1.82.33,3.63.51,5.45,1.53-17.4,1.18-34.64,1.71-51.86.21-6.79-4.49-10.49-8.05-15-.5-.63-3,.1-4.58.2l-8.39-4.16,3.09-1.46c2.08-.3,4.48-.07,6.17-1,9-4.86,17.8-10,26.67-15.07.44.7.7,1.73,1.35,2,5.6,2.6,11.07,5.77,17,7.31,3.45.89,7.77-.66,11.55-1.63,1-.26,1.56-2.37,2.26-3.66,2.1-3.85,4.17-7.7,6.68-12.37l10.5,6.35-9.4,5.9.65.8,9.08-4.84c4.88,6.19,4.88,6.19,9.95,5.06L144,129.47l-.11.12,18.72,1.95c-13.47-4.53-26.85-4.87-40.33-4.2-.88,0-1.72,1.06-2.57,1.63l-5.38.59c-2.34.55-4.83.78-7,1.69-7.44,3.14-14.77,6.52-22.14,9.81-.14-.18-.29-.35-.44-.53v-9.39l6.88,2.45c1.93-1,3.76-2.48,5.85-3,6.13-1.53,12.34-2.8,18.57-3.94s5.29-4.86,4.41-9c-1.29-6-2.35-12-3.48-18,0-.15.2-.35.32-.52,6.18-3.72,8.54-.12,11.12,4.67l-.6-6.39,1.36-.41c2.16,5.84,4.83,11.56,6.34,17.53,1.61,6.44,5.21,8.66,12.43,6.53-8.34.76-9.51-4.69-11.07-9.94-1.47-4.91-3.18-9.75-4.44-13.57,3.91.27,7.48,1,10.94.66a70.51,70.51,0,0,0,13-2.64c1.84-.54,3.34-2.22,4.88-3.51,2.19-1.84,4.26-3.81,6.39-5.72l2.11,1.4-15.68,39,1.76.88a30.66,30.66,0,0,0,2.37-4c4.49-11.08,8.8-22.22,13.44-33.24.73-1.74,2.85-3,4.32-4.44.14,2.07,1,4.39.29,6.17-4.12,10.54-8.63,21-13,31.41-.68,1.64-1.17,3.34-1.74,5l2,.66L182.44,84c7-1.53,16.61-3.73,26.32-5.7a6.27,6.27,0,0,1,4.33,1.11c5.66,4.13,11.17,2.17,16.95.23-6.7-6.62-14.11-7-23-4.78-29.67,7.31-59.52,14-91.38,21.35C117.11,92,118,89,119.23,86c1.76-4.18.63-6.36-5.56-6.35V93.2c0,8.79,0,8.79-10.3,9.23,0-6.38-.16-12.76.15-19.12,0-1.08,1.91-2.36,3.23-3,2.45-1.28,5.13-2.2,7.72-3.27l-.09.1H120c0-5.36-.36-10.56.1-15.7S118.53,53,113,52ZM85.94,257.55a27.31,27.31,0,0,0,5.21.52,22.36,22.36,0,0,0,4.7-1.34,33.65,33.65,0,0,0-1.71-4.27c-.56-1-1.54-1.85-3.53-4.15-2,3.85-3.36,6.61-4.76,9.38-2.16-2-4-5-6.54-5.65a42.85,42.85,0,0,0-13.9-.69c-2.18.21-5.93,2.65-5.8,3.78a9.14,9.14,0,0,0,4.33,6.13C70.78,264.94,80,263.12,85.94,257.55Zm60.31-77.68,6.83-2.89,21.78,57.23,1.7-.52A34.81,34.81,0,0,0,175.5,229q-9.94-26.81-20-53.58c-3.08-8.24,1-13.94,10.13-14.73,6.75-.59,13.44-1.82,20.16-2.77q-1.59,3.27-3.16,6.54c-6.15.13-9.56,2.42-9.65,8.8,0,3.16-2.21,6.25-3,9.47-.52,2.08-1,4.5-.33,6.45,3.27,9.9,7.16,19.62,10.3,29.55a63.08,63.08,0,0,1,2.86,15.54c.46,8.75.13,17.54.13,26.31l2.08,0q-1.26-48.1-2.5-96.21h3v45.89l2.29.17c2-15.05,4.06-30.09,6.12-45.4l-8.55-.53c2.84-5.2,5.67-10.4,8.79-16.13,7,8.51,10.71,16.36,10.42,26.46-.69,23.85-.07,47.74,0,71.59l-7.79-6.75-3.62,7.24,11.37-.56,2.59-17.57c2.25,4.37,3.13,9.06,6.09,11s8.12,1.28,13.43,1.88c-5.05-8.51-8-17.08-20.8-13.93l.91-1.8,11.73-1.28c-2.4-1.83-3.59-3.15-5.1-3.8-6.17-2.61-7.61-7-7.33-13,.54-11.43-.71-23,.42-34.32,1-10.1-3.86-17.56-9-25.36-2.26-3.42-4.07-2.49-5.82.24-2.06,3.2-4,6.46-6,9.71-3.91-.15-7.83-.5-11.74-.41-5.45.13-10.9.58-16.52.9-.2-2.54-.05-4.26-.54-5.79a22,22,0,0,0-2.49-4.26,20.84,20.84,0,0,0-2.07,4.32c-1.58,7-2.93,14.06-4.45,21.08-.42,2-1.15,3.88-1.74,5.82-6.71-6.44-14.43-9.9-25-8.08l3.32,4.39c-9-1.62-.88-8.72-5.84-13.65-1.76,4.22-5,8.08-4.09,10.76,1.25,3.81,4.88,7.76,8.64,9.83,7.6,4.19,16.21,6.76,24,10.76,5.76,3,8.08,8.15,6.2,14.43-.06.22-.64.32-1.13.54l-1.32-4.5c-5.87,1-11.37,1.89-16.86,2.84-.12,0-.17.35-.35.76l3.09,3.94a70.35,70.35,0,0,0-6.76,3.43,66.87,66.87,0,0,0-5.84,4.78c8.68,3,8.7,3,22-6.37-2.91,7.63-18.13,14.23-25.21,10.72-1.06-.53-1.29-2.52-1.85-3.72l-4.84,3.54c9.6,5.55,18.63,1.48,27.94-1.31-4.58,2.43-9.32,4.77-14.28,5.28-5.61.59-7,3.36-6.15,7.41a17.13,17.13,0,0,0,4.5,8.57c6.42,6,14.47,8.39,23.72,7.88,12.35-.7,19.13-8.83,15.62-19.88-1.95-6.16-4.69-12.1-7-18.18-.79-2.13-2-4.44-1.73-6.54.89-7.55-1.46-14-6.67-19.59Q148.22,183.82,146.25,179.87Zm-44,2.32c-8.34,15.36-6.7,27.6,5,37.75,0-.88-.23-2.57,0-2.64,4.44-1.18,6.78-4.35,5.06-7.84-1.09-2.22-5.35-3-8.06-4.63-1.55-.93-3.25-2-4-3.48-.31-.56,1.54-2.43,2.73-3.35,2.91-2.26,5.85-4.39,10.16-2.32.78.38,3.19-1.08,4.06-2.21a43.79,43.79,0,0,0,3.59-6.24c-3-4-5.58-7.53-8.35-10.93-.47-.57-1.8-.54-2.73-.79l2.91-6.94L99.46,170Zm57.56,70.91c-17.65,7.77-31.71,5-45.35-8.51-2.75-2.74-3.2-5-1.43-8.25,1.48-2.68,2.48-5.58,3.7-8.39l-1.54-.59-6.06,10.55c-7.51-5.32.88-9.57,0-15.12-2.1,2.85-3.61,4.88-5.76,7.78A139,139,0,0,1,88.65,166.1c5.58-.38,10.43-.6,15.26-1,4.36-.41,8.68-1.06,13-1.61l-.26-2.07-27.38,1.74c-.53-3.41-.91-5.92-1.3-8.43l-2.25-.2c-.51,2.06-1.65,4.18-1.44,6.16,1.78,16.09,2.61,32.39,6.07,48.17,3.74,17.09,12,32.65,26.58,44.5C129.76,263.7,148.07,263.62,159.82,253.1ZM224.73,64.36c.14-2.34.39-4.54.39-6.74q.06-20.61,0-41.2c0-8.35-1.6-10-10.88-11.13V62.47Zm-95,18.53c12-.41,12.54-.91,12.55-11.18,0-7.7,0-15.39,0-23.09,0-10.77-.7-11.54-12.54-14.61ZM184,94.61l-3.11.16c-4.36,10.16-8.93,20.25-12.85,30.55-.57,1.51,1.41,5.21,3.12,5.89,6.21,2.45,12.8,4,21.68,6.69C189.69,122.35,186.85,108.48,184,94.61ZM166.23,25.39c0,6.74-.3,12.75.07,18.71.45,7.13.56,13.74-9.91,14.58,4.46,4.85,8.69,5,13.8,2.75s6.44-5.77,6.18-10.59a86.8,86.8,0,0,1,0-14.33C177.1,30,173.66,27.06,166.23,25.39Zm-29.29,77.66c1.43,4.83,2.32,8.89,4,12.67.51,1.18,3,2.24,4.63,2.22,1.91,0,4.9-.76,5.53-2,2.69-5.34,4.68-11,7.27-17.4Zm69.53-37.67L191.6,41.91V68.65Zm-3.11,202.43c-6.6-4-19.8-2.57-24.27,2.18-2.67,2.82-2.33,5.21.25,7.58,6.07,5.59,22.22,5.9,28.78.64,4.19-3.36,3.65-6.49-2.11-9.15,2.79,5.3-.61,7.67-4.83,8.28a47.56,47.56,0,0,1-14.29-.24c-2-.32-3.48-3.09-5.2-4.75,1.94-1.51,3.73-4.07,5.85-4.33C192.65,267.38,197.92,267.81,203.36,267.81Zm-25-40.4,1.85-.63c-.64-2.12-1.18-4.27-1.94-6.35-4-11.2-8.41-22.3-12.06-33.61-1.12-3.45-.57-7.47-.3-11.2a77.56,77.56,0,0,1,1.77-9.34l-2.56-.32c-1.81,6.58-6.3,12.61-2.43,20.23,2.55,5,4.06,10.51,6.05,15.79Q173.51,214.7,178.33,227.41ZM161.4,297.9c5-1.34,10.39-1.43,13-4,1.48-1.44-.61-7.59-2.86-10.36-1.63-2-6.18-1.92-10.16-3Zm51.91-191.32c13.42,8,10.62,9.41,21-2.33C222.15,96.38,222,96.4,213.31,106.58ZM66.12,249.12H76.94c.59-1.69,1.08-3.06,2-5.58l2,7.17c1.68-8.21-.65-12.47-5.83-13.44-3.11-.58-6-2.16-8.94-3.27Zm61.05-89c-1.64,2.23-3.29,4-4.27,6.11-.28.61,1.35,2,2.11,3l4-3.39c1.26,0,3.31.57,4.34-.15s2.15-3.22,1.63-4.1a10.92,10.92,0,0,0-5-4.38,65.2,65.2,0,0,0-11.15-3c-2.85-.58-5.8-.69-8.7-1l-.66,2.31C113.54,162.44,122.58,157.43,127.17,160.16Zm37.74-84.9c16.23-3.2,16.23-3.2,14-16.82-2.55,2-4.92,5.07-8,5.82C164.33,65.91,163.48,69.59,164.91,75.26Zm-14.69,219c-.53-4.7-1-8.75-1.44-12.91h-8.43c-.64,4.53-1.23,8.68-1.83,12.91Zm2.49-215.45c3.65-2.13,8.58.15,9.38-5.71.92-6.73-3.57-8.77-9.38-10.81Zm21.38,65.29-22.44,2,.16,1.21,36.65-3.52c-2.39-5.41-10.29-8.32-15.68-6.44C173.19,139.47,173.61,141.63,174.09,144.11ZM214.16,165v9c2.28.41,4.22.85,6.19,1.09s4.21.31,6.28.45C227.67,166.73,226.71,166,214.16,165Zm-11,100.16V249.94h-10C197.16,255,195.44,262,203.13,265.15Zm22.55-118.52c.92-6.32-1.78-8.33-12.41-9.38.2,3.05.39,6.05.6,9.38Zm-7.77-12.52c7,5.4,13.48,4.24,20.05-.17C231.16,129.49,224.63,127.91,217.91,134.11Zm-7.45,65.73c12.2,2,12.7,1.86,13.91-4.85L212,190.73C211.4,194.37,210.93,197.12,210.46,199.84Zm-4.3-107,2.24.82c2.56-3.12,6.86-6.1,7.17-9.41s-7-3.41-12.27.1C204.24,87.11,205.2,90,206.16,92.82ZM185.3,272.61c5,4.25,10.5,4.1,15.85,2.07,3-1.14,3.3-4-.1-4.79-4.35-1.05-9-.93-13.54-1.31l-.07,1.87,7.89.75-.12,1.41Zm-65.88,16.17,1.42,2.08c2.71-1.4,7.07-2.31,7.78-4.32,1.61-4.62.38-9-6.91-8.71C120.93,281.54,120.18,285.16,119.42,288.78Zm114-72.59L220.54,215c.13,2.75.23,4.67.33,6.72l12.58.76Zm-4.29-64.57c-1.07,7.29,1.32,9.25,11.16,9.15C240.83,154.21,239.82,153.38,229.16,151.62Zm-3.3,40.52,12.77,1.27v-7.27l-11.33-.71C226.88,187.41,226.5,189.14,225.86,192.14ZM100.31,275.43c.31.63.63,1.26.94,1.9l9.94-2.72q-2.06-4.5-4.1-9l-2.21.51Q102.6,270.79,100.31,275.43ZM239.83,130.3c1-6-1-7.72-11.13-9.51C226.66,126.65,227.91,127.71,239.83,130.3ZM211.45,250.6c6.07-1.58,13,3.3,15.2-6.43C221.41,246.28,214.51,240.9,211.45,250.6ZM126,30.13c.77-6,2.79-12.17-1.23-17.66C123.91,18.5,121.81,24.6,126,30.13ZM222.6,90.38c.46,7.37,8.28,6.78,12.65,9.93C234.44,93.32,227.35,93.12,222.6,90.38ZM192.71,12l9,14.53C204.75,18.17,200.64,14.61,192.71,12Zm13.54,252.59,6.21-.4c-1.83-4.93-3.37-9.09-4.92-13.25l-1.29.37ZM153.36,47.73c4.65-4.41,2.39-9.6,2.06-14.62C150,37.32,153.19,42.73,153.36,47.73Zm71,68.71-12.93-6.16v8.22ZM130.38,29.91l1.47-.12V15.36l-1.47.06Zm7-11.24-1.53.18V32.94l1.53,0ZM219.52,176.6l-.87,2.32,14.61,4.94,1-2.66ZM66.36,180.39v11.52C72.24,187.24,72.22,184.28,66.36,180.39Zm57.27-56.08,2.06,1.19c.93-1.82,2.49-3.62,2.56-5.48.05-1.24-2-2.55-3.13-3.84l-1.49,1Zm40.83,19.29,3.06-1.21-4.37-9.33-2.32.92Z"/><path d="M64.27,154.26l2.4-4C60.85,147.2,55,144,60.12,136l13.6-1.4v9.61l1.23.06c.23-3.51.46-7,.7-10.76l5.64-.55,3.44,7.54c.15.18.3.35.44.53Z"/><path d="M114.47,77,103.35,78.3c0-7.19-.37-14,.12-20.79.38-5.46,6.11-4.09,9.66-5.44L113,52l1.38,25.14Z"/><path d="M113.65,103.29c0,7.07.45,13.52-.13,19.89-.54,6-6,3-9.76,4.4V105Z"/><path d="M92.72,80.19c0-6.39-.58-12.85.32-19.13.31-2.2,4.25-4,6.53-5.92l1.81,1.1c0,6.78.48,13.61-.3,20.3-.22,1.94-4.06,3.5-6.24,5.24Z"/><path d="M101.37,106.14c0,6.37.46,12.78-.32,19.06-.2,1.61-4.33,2.8-8.31,5.16,0-8.58-.49-14.8.31-20.87.24-1.77,4.19-3.11,6.44-4.65Z"/><path d="M92.72,57.18c0-7.93-.59-14,.29-19.84.35-2.31,4-4.2,6.13-6.28l2.22,1.16c0,6.31.56,12.69-.34,18.88C100.74,53.05,96.54,54.51,92.72,57.18Z"/><path d="M92.71,31c0-5.75-.66-11.59.3-17.19.44-2.6,4-4.73,6.22-7.08l2.16,1.14c0,6.29.55,12.65-.3,18.84-.29,2.08-4.12,3.74-6.33,5.59Z"/><path d="M101.42,80.57c0,7.75.54,13.76-.29,19.6-.29,2-4,3.62-6.15,5.4l-2.16-1.17c0-6.46-.44-13,.33-19.34C93.32,83.59,97.6,82.55,101.42,80.57Z"/><path d="M75.32,84.29c0-6-.42-12,.25-17.84.21-1.83,3.36-3.38,5.17-5.06l1.92,1.09c0,6,.41,12-.25,17.85-.2,1.86-3.3,3.43-5.07,5.13Z"/><path d="M75.36,132.59c0-8.13-.31-14.3.24-20.4.13-1.37,3.32-2.49,5.1-3.72l1.87,1c0,6.32.29,12.66-.26,18.94C82.21,129.63,78.81,130.6,75.36,132.59Z"/><path d="M82.63,36.64c0,8.07.39,14-.23,19.92-.19,1.8-3.14,3.35-4.82,5l-2.21-.91c0-6-.42-12.12.26-18.09C75.83,40.84,79.2,39.43,82.63,36.64Z"/><path d="M82.65,84.13c0,7.92.37,13.72-.24,19.43-.18,1.63-3.24,3-5,4.46L75.34,107c0-5.74-.43-11.52.26-17.19C75.8,88.11,79.17,86.79,82.65,84.13Z"/><path d="M82.69,15.9c0,5.94.5,11.33-.24,16.57-.3,2.13-3.3,3.92-6.06,7C73.38,22.5,74.45,18.5,82.69,15.9Z"/><path d="M90.92,59.64c0,6.54.27,13.09-.23,19.59-.1,1.4-3,2.61-6,5,0-8.24-.31-14.21.19-20.12.16-1.87,2.51-3.57,3.85-5.35Z"/><path d="M84.67,58.19c0-6.32-.32-12.11.19-17.84.16-1.86,2.51-3.54,4.76-6.47C92.85,48.7,91.36,56.29,84.67,58.19Z"/><path d="M90.86,105.94c0,8.08.27,14-.18,20-.12,1.6-2.41,3-3.7,4.57l-2.25-.91c0-6.51-.22-13,.21-19.52C85,108.91,87.85,108,90.86,105.94Z"/><path d="M90.34,82.81c1.78,20.59,1.46,22-5.64,22.82,0-6.18-.26-12.27.2-18.32C85,86,87.69,84.92,90.34,82.81Z"/><path d="M90.91,12.32c0,6.11.32,12.06-.2,18-.15,1.66-2.76,3.12-4.88,5.34C82.64,20.94,84.14,14.19,90.91,12.32Z"/><path d="M72.61,125.89C62,118,62,118,65.51,109.81,73.8,110.07,74.67,109.41,72.61,125.89Z"/><path d="M69,160.3c-.1.94-.19,1.88-.29,2.83L61.17,176.7c-.59-.49-3.08-1.56-3.17-2.79a9.43,9.43,0,0,1,2-6.57C62.5,164.62,65.91,162.61,69,160.3Z"/><path d="M63.51,210.8c-5.91-3-6.33-8.06-.12-14,0,5.28,0,9.71,0,14.14Z"/><path d="M144,129.47c-6.94-.28-13.56-.06-15.51,8.41-.2-2.65-.39-5.29-.59-7.94l-2.15-.48L123.15,139l-2,0c-.17-2.63-.35-5.26-.52-7.86-9.1.07-6.15,7.19-7.46,11.86-6.55,1.33-10-5.81-16.22-4.74l17.4-8.77,5.38-.59,24.18.62Z"/><path d="M78.17,253.28l3.65,1.94c-.87,1.07-1.68,3-2.61,3.07a119.64,119.64,0,0,1-14.91-.15c-.87-.06-1.57-2.13-2.35-3.27l3.1-1.63,7.8,2.18-6,.83.2,1.53c3.4-.29,6.84-.43,10.18-1C77.76,256.65,77.87,254.49,78.17,253.28Z"/></svg>