<svg id="Capa_3" data-name="Capa 3" xmlns="http://www.w3.org/2000/svg" viewBox="0 0 300 300"><path d="M72.32,126.29H113v3.28q0,47.88,0,95.75c0,10.41,3,19.88,10.8,27.12,11.28,10.48,24.59,13.1,39,8.11,14-4.84,21.71-15.23,23.7-29.86a54.92,54.92,0,0,0,.45-7.48q0-46.62,0-93.24v-3.55h40.53c0,.93.13,1.83.13,2.73,0,33.68.17,67.36-.07,101-.11,16.66-4.44,32.16-15.78,44.92-10.31,11.61-23.39,18.74-38.45,22-21.37,4.69-42.5,4.06-62.61-5.24-22.85-10.56-35.5-28.7-37.9-53.84-.33-3.5-.47-7-.47-10.55q-.06-48.84,0-97.69Z"/><path d="M227.43,88c-1.41-.76-2.31-1.21-3.17-1.71Q188.47,65.72,152.72,45a4.74,4.74,0,0,0-5.54,0Q111.35,65.86,75.4,86.47c-.78.45-1.59.85-2.69,1.43-.08-1.13-.18-1.92-.18-2.7,0-12.8,0-25.6,0-38.4a3.92,3.92,0,0,1,2.24-4Q111.4,21.79,148,.62a3.5,3.5,0,0,1,4,0q36.47,21.09,73,42.06a4.15,4.15,0,0,1,2.45,4.12c-.1,12.8,0,25.6,0,38.4Z"/></svg>