<svg id="Capa_3" data-name="Capa 3" xmlns="http://www.w3.org/2000/svg" viewBox="0 0 300 300"><path d="M18.3,149.11c-.41-12.85,5.17-24.48,14.75-34.16Q83.24,64.24,133.77,13.84c18.39-18.26,47-18.55,65.65-.29q35.46,34.71,69.77,70.58c17,17.67,16.67,46.66-.61,64.59-21.2,22-43,43.35-64.49,65.08-2.7,2.72-4.61,2.72-7.25,0-8.32-8.57-16.68-17.1-25.3-25.36-3.48-3.33-3.56-5.5,0-9,19.2-19,38.19-38.22,57.22-57.4,6-6,5.91-6,.07-11.93C209.92,91.06,191,72.05,172.33,52.81c-4-4.11-6.52-4.59-10.84-.2Q116,98.85,70,144.62C66,148.53,65.82,151,69.88,155q45.9,45.89,91.3,92.22c4.11,4.19,6.6,4.57,10.72.09,7.95-8.64,16.53-16.69,24.74-25.09,2.41-2.47,4.28-3.51,7.2-.48q13,13.54,26.48,26.68c2.87,2.8,2.39,4.63-.22,7.19-9.77,9.61-19.34,19.41-29,29.09-19.76,19.71-47.94,20.64-67.78,1C98.74,251.63,64.74,217,30.8,182.26,22.32,173.58,18.07,162.64,18.3,149.11Z"/></svg>