<svg id="Capa_3" data-name="Capa 3" xmlns="http://www.w3.org/2000/svg" viewBox="0 0 300 300"><path d="M19.85,0q130,1.89,260.3,0c-.29,4.91-.78,10-.85,15.06-.19,14.67-.25,29.34-.27,44,0,34.73,0,69.46-.09,104.19-.05,12.92-.92,25.78-3.78,38.45-4.84,21.44-17.49,37.31-35,49.83-12.89,9.2-26.8,16.63-40.9,23.73Q175.14,287.42,151,299.55a3.58,3.58,0,0,1-2.73.28c-21.69-10.77-43.42-21.46-65-32.51a159.52,159.52,0,0,1-31.18-20.86c-16.38-14.07-25.77-32-28.64-53.2a274.74,274.74,0,0,1-2.43-34.39c-.37-47.73-.32-95.46-.49-143.19C20.57,10.4,20.1,5.13,19.85,0Zm156.9,157.85h4.1q45,0,90,0c2.41,0,3.37-.46,3.35-3.2-.15-15.78-.07-31.57-.08-47.36,0-1-.08-2-.14-3.32H176.75v-4q0-45.56,0-91.1c0-2.39-.41-3.38-3.16-3.36-16.07.15-32.13.07-48.2.08-.9,0-1.8.09-3.07.15v98.31h-3.68q-44.87,0-89.71,0c-2.46,0-3.34.53-3.32,3.21.14,15.6.07,31.2.07,46.8,0,3.79,0,3.8,3.76,3.8h92.94v4q0,58.21-.07,116.45c0,2.14.58,3.29,2.58,4.23,7.48,3.51,14.87,7.18,22.24,10.91a4.3,4.3,0,0,0,4.38,0c7.29-3.68,14.6-7.33,22-10.76,2.49-1.14,3.26-2.58,3.25-5.28q-.13-57.81-.06-115.62Z"/><path d="M120,109.19h3.29c2.45,0,4.76.31,6.7-2.11,1.51-1.88,4.48-1.25,6.43.72s7,2,8.94.07c2.42-2.38,5.22-2.39,7.59,0,1.94,1.92,6.49,1.94,8.38,0,2.09-2.12,4.81-2.65,6.63-.59s3.79,2,6,1.92c1.56,0,3.12,0,4.84,0v43h-8v16.37h-9.44V152.4H137.19v16.1H127.7V152a59.32,59.32,0,0,1-6.32-.08c-.7-.07-1.88-1-1.88-1.55,0-13.54,0-27.09.08-40.64C119.58,109.68,119.68,109.6,120,109.19Z"/></svg>