<svg id="Capa_3" data-name="Capa 3" xmlns="http://www.w3.org/2000/svg" viewBox="0 0 300 300"><path d="M102.25,187.07c-2.18,3.93-4,7.36-6,10.71a3.51,3.51,0,0,1-2.4,1.42c-12.77.08-25.55.05-38.32,0a5.81,5.81,0,0,1-1-.2C57.37,194,60.13,189,62.9,184c5.91-10.68,11.79-21.37,17.8-32a3.48,3.48,0,0,0,0-4c-2-3.22-3.68-6.52-5.67-10.12-3,5.4-5.86,10.46-8.67,15.54q-12.21,22-24.36,44c-.75,1.36-1.6,1.87-3.5,1.86-12.68-.07-25.36,0-38.46,0,.45-.9.76-1.59,1.13-2.26q26-47,52-93.91c1-1.8,2.18-2.43,4.67-2.4,11.8.11,23.6.08,35.41,0,1.78,0,2.63.44,3.31,1.76,1.72,3.37,3.67,6.66,5.77,10.43,1.26-2.22,2.27-4,3.29-5.84,2.42-4.28,6.32-6.4,12.42-6.36q32.24.19,64.48,0c5.74,0,9.5,2,11.83,6,1.1,1.9,2.17,3.81,3.5,6.15,2-3.57,3.87-6.71,5.47-10,.83-1.68,1.93-2.29,4.26-2.26,11.89.11,23.78.08,35.68,0,1.74,0,2.61.38,3.34,1.71q26.1,47.25,52.32,94.47c.38.69.71,1.39,1.16,2.27-1.18,0-2,.1-2.88.1-11.8,0-23.61,0-35.41,0-2,0-2.9-.49-3.7-1.93q-15.73-28.6-31.64-57.16c-.35-.64-.74-1.27-1.35-2.3-2.28,4.11-4.46,7.89-6.43,11.73-.28.55.35,1.47.72,2.16q12.58,22.77,25.2,45.55c.28.5.55,1,.93,1.73-.81.07-1.45.17-2.09.17-12.15,0-24.31,0-36.46,0-1.77,0-2.66-.4-3.34-1.73-1.72-3.37-3.66-6.67-5.78-10.46-1.22,2.16-2.21,3.91-3.17,5.66-2.41,4.36-6.29,6.59-12.53,6.55-21.58-.13-43.16-.09-64.74,0-5.53,0-9.16-2-11.47-5.85C104.68,191.5,103.62,189.51,102.25,187.07ZM62,104.76c.53,1,.89,1.72,1.29,2.42l24.93,45c7.13,12.86,14.29,25.72,21.35,38.6,1.74,3.18,4.24,4.74,8.88,4.7,21.31-.16,42.62-.11,63.93,0,3.7,0,6-1.22,7.47-3.76s2.79-5.17,4.31-7.71a2.94,2.94,0,0,0,.06-3.34c-4.42-7.82-8.74-15.67-13.09-23.51-.34-.6-.75-1.18-1.34-2.1-.66,1.18-1.13,2-1.58,2.81-4.19,7.53-8.29,15.09-12.58,22.58s-15.13,10.17-24.1,6.28c-4.47-1.95-6.69-5.22-8.64-8.76q-19.75-35.76-39.55-71.49c-.77-1.4-1.72-1.83-3.55-1.81-8.45.06-16.9,0-25.36,0C63.77,104.63,63.09,104.7,62,104.76ZM150,184.6c5.27-.24,9.22-2.14,11.42-6q7.68-13.67,15.18-27.37a2.67,2.67,0,0,0,0-2.34c-5-9.21-10.08-18.42-15.29-27.56-2.15-3.79-6.06-5.82-11.31-5.8s-9.11,2.07-11.26,5.86c-5.2,9.15-10.25,18.36-15.28,27.56a2.37,2.37,0,0,0,0,2.14q7.54,13.81,15.26,27.57C140.84,182.44,144.74,184.32,150,184.6Zm88-79.68a5.3,5.3,0,0,0-1-.27c-9.24,0-18.47-.05-27.7,0a3.51,3.51,0,0,0-2.36,1.48c-2,3.29-3.86,6.63-5.54,10a3.63,3.63,0,0,0,0,3.09c2.93,5.57,6.05,11.07,9.11,16.59,1.65,3,3.31,5.95,5.19,9.32C223.23,131.5,230.58,118.25,238,104.92Z"/></svg>